<svg width="212" height="33" viewBox="0 0 212 33" fill="none" xmlns="http://www.w3.org/2000/svg">
<g clip-path="url(#clip0_96_2078)">
<path d="M44.7969 29.9277C44.7969 29.7239 44.9365 29.5561 45.24 29.5261L46.7697 29.2863C47.6559 29.1544 47.929 28.9206 47.929 27.9794V7.83707C47.929 7.20162 47.7227 6.96782 46.8729 6.96782C45.1733 6.96782 43.2673 8.31064 42.7938 11.4999L42.6239 12.6029C42.6191 12.7227 42.5668 12.8358 42.4781 12.9177C42.3895 12.9996 42.2718 13.0438 42.1504 13.0405C41.8773 13.0405 41.6709 12.8427 41.7073 12.471L42.0108 6.39233C42.0472 5.88877 42.2475 5.625 42.6178 5.625C42.9881 5.625 43.1641 6.12856 45.3371 6.12856H52.9003C55.0734 6.12856 55.1766 5.625 55.6197 5.625C56.0628 5.625 56.1963 5.88877 56.2267 6.39233L56.5302 12.471C56.5605 12.8427 56.3602 13.0405 56.0871 13.0405C56.0266 13.0437 55.9661 13.0349 55.9091 13.0144C55.8522 12.9939 55.8001 12.9623 55.7558 12.9214C55.7116 12.8805 55.6762 12.8313 55.6518 12.7765C55.6273 12.7218 55.6143 12.6627 55.6136 12.6029L55.4437 11.4999C54.9641 8.31064 53.0642 6.96782 51.3646 6.96782C50.5148 6.96782 50.3085 7.20162 50.3085 7.83707V27.9794C50.3085 28.9206 50.5816 29.1784 51.4678 29.2863L52.9975 29.5261C53.301 29.5561 53.4345 29.7239 53.4345 29.9277C53.4345 30.1315 53.2645 30.2934 52.9246 30.2934H45.2764C44.9669 30.2934 44.7969 30.1615 44.7969 29.9277Z" fill="#2F2E2A"/>
<path d="M57.8165 29.9276C57.8147 29.8257 57.8529 29.727 57.923 29.6522C57.9931 29.5773 58.0898 29.5321 58.1928 29.526L58.6663 29.46C59.6192 29.3221 59.8256 28.9864 59.8256 28.0453V8.81408C59.8256 8.00479 59.6192 7.80098 58.9758 7.70506L58.2596 7.60315C58.1576 7.59423 58.0626 7.54818 57.993 7.47395C57.9235 7.39972 57.8843 7.30261 57.8832 7.20149C57.8815 7.09955 57.9196 7.00088 57.9897 6.92605C58.0599 6.85122 58.1565 6.80601 58.2596 6.79985C59.2073 6.62399 60.1158 6.28297 60.9425 5.79274C61.1784 5.60718 61.4623 5.49086 61.7619 5.45703C61.9987 5.45703 62.1322 5.62487 62.1322 5.99055V14.8868C62.1322 15.2884 62.4418 15.3903 62.8485 15.0247C64.5481 13.478 65.7378 12.9744 67.2006 12.9744C69.3069 12.9744 70.6302 14.4192 70.6302 17.1348V28.0453C70.6302 28.9864 70.8366 29.2862 71.7895 29.424L72.5362 29.526C72.588 29.5267 72.6391 29.5378 72.6864 29.5586C72.7338 29.5794 72.7763 29.6095 72.8115 29.6471C72.8467 29.6847 72.8738 29.7289 72.8912 29.7771C72.9085 29.8253 72.9158 29.8765 72.9125 29.9276C72.9138 29.9797 72.9037 30.0314 72.8829 30.0792C72.862 30.127 72.8309 30.1698 72.7916 30.2046C72.7524 30.2394 72.7059 30.2653 72.6555 30.2806C72.6052 30.2959 72.552 30.3003 72.4997 30.2933H66.794C66.454 30.2933 66.3144 30.1314 66.3144 29.9276C66.3127 29.8257 66.3508 29.727 66.4209 29.6522C66.4911 29.5773 66.5877 29.5321 66.6908 29.526L67.1642 29.46C68.1172 29.3221 68.3236 28.9864 68.3236 28.0453V17.4945C68.3236 15.3124 67.4738 14.4971 65.9745 14.4971C63.8015 14.4971 62.1322 16.5773 62.1322 19.0291V28.0213C62.1322 28.9625 62.3386 29.2982 63.2916 29.4001L64.2081 29.502C64.26 29.5027 64.3111 29.5138 64.3584 29.5346C64.4058 29.5554 64.4483 29.5855 64.4835 29.6231C64.5187 29.6607 64.5458 29.7049 64.5632 29.7531C64.5805 29.8014 64.5878 29.8526 64.5845 29.9036C64.5858 29.9557 64.5757 30.0074 64.5549 30.0552C64.534 30.103 64.5028 30.1458 64.4636 30.1806C64.4243 30.2154 64.3779 30.2413 64.3275 30.2566C64.2771 30.2719 64.224 30.2763 64.1717 30.2693H58.2232C58.1236 30.276 58.0254 30.244 57.9494 30.1802C57.8734 30.1163 57.8257 30.0257 57.8165 29.9276Z" fill="#2F2E2A"/>
<path d="M74.4062 21.9374C74.4062 16.6681 76.986 12.9453 80.3548 12.9453C83.0074 12.9453 84.8405 14.9955 84.8405 19.8633C84.8405 20.5647 84.5674 20.9663 83.9907 20.9663H77.5323C77.0892 20.9663 76.8525 21.2001 76.8525 21.7396C76.8525 26.4755 78.4185 28.8554 80.5916 28.8554C82.3276 28.8554 83.3473 27.7823 84.0272 24.8989C84.0406 24.7945 84.0927 24.6988 84.1735 24.6302C84.2542 24.5615 84.3577 24.5249 84.4642 24.5272C84.7374 24.5272 84.8405 24.7969 84.7738 25.1986C84.0272 29.1911 82.3943 30.5939 80.1485 30.5939C76.8889 30.5999 74.4062 27.1409 74.4062 21.9374ZM80.8647 20.139C81.9877 20.139 82.4975 19.6354 82.4975 18.4605C82.4975 15.541 81.7449 13.7966 80.3184 13.7966C78.552 13.7966 77.2834 15.9127 76.9192 19.6055C76.9063 19.6757 76.9103 19.748 76.9309 19.8164C76.9515 19.8849 76.988 19.9476 77.0377 19.9995C77.0873 20.0514 77.1485 20.0911 77.2165 20.1153C77.2845 20.1396 77.3574 20.1477 77.4291 20.139H80.8647Z" fill="#2F2E2A"/>
<path d="M92.791 29.9281C92.791 29.6943 92.9306 29.5924 93.2341 29.5264L94.0172 29.3885C94.9701 29.2207 95.1704 29.0229 95.1704 28.0817V8.34097C95.1704 7.3998 94.9701 7.20195 94.0172 7.0341L93.2341 6.89623C92.9306 6.83029 92.791 6.72837 92.791 6.49458C92.791 6.26078 92.961 6.12891 93.3009 6.12891H100.202C103.602 6.12891 106.084 8.40691 106.084 11.5242C106.084 13.5324 104.828 15.3488 102.582 16.4878C102.309 16.6257 102.278 16.8955 102.618 16.9914C105.653 18.0345 107.474 20.3844 107.474 23.4717C107.474 27.4702 104.439 30.3177 100.372 30.3177H93.3312C92.961 30.2938 92.791 30.1619 92.791 29.9281ZM103.602 11.6321C103.602 8.84453 101.902 6.96817 99.3891 6.96817C98.1751 6.96817 97.5681 7.39978 97.5681 8.31099V14.6534C97.5681 15.9603 98.1144 16.4998 99.3891 16.4998C101.799 16.4998 103.602 14.4196 103.602 11.6321ZM104.895 23.3458C104.895 19.6231 102.855 17.3511 99.6926 17.3511C98.2297 17.3511 97.5863 17.8546 97.5863 18.9936V27.1525C97.5863 28.7291 98.3025 29.4725 99.899 29.4725C102.855 29.4845 104.895 27.0866 104.895 23.3458Z" fill="#2F2E2A"/>
<path d="M109.248 29.9285C109.248 29.7247 109.382 29.5928 109.691 29.5269L110.098 29.4609C111.221 29.2871 111.421 28.9873 111.421 28.0462V16.77C111.421 15.9607 111.221 15.7629 110.571 15.661L109.861 15.5591C109.521 15.5231 109.418 15.3912 109.418 15.1934C109.418 14.9956 109.588 14.8877 109.958 14.8217C111.082 14.6827 112.125 14.1737 112.92 13.377C113.121 13.1732 113.26 13.0773 113.43 13.0773C113.6 13.0773 113.734 13.2091 113.734 13.4789V28.0462C113.734 28.9873 113.94 29.323 114.717 29.425L115.567 29.5269C115.81 29.5568 115.943 29.6947 115.943 29.8925C115.943 30.0904 115.773 30.2942 115.433 30.2942H109.758C109.418 30.2942 109.248 30.1623 109.248 29.9285ZM110.911 8.20953C110.899 7.98277 110.934 7.75589 111.014 7.54302C111.094 7.33015 111.217 7.13584 111.377 6.9722C111.536 6.80855 111.728 6.67909 111.94 6.59184C112.153 6.50459 112.381 6.46143 112.611 6.46505C112.839 6.46201 113.066 6.50582 113.276 6.59368C113.487 6.68155 113.676 6.81157 113.833 6.97553C113.99 7.13949 114.111 7.33382 114.188 7.54623C114.265 7.75863 114.296 7.98449 114.28 8.20953C114.298 8.43771 114.269 8.66716 114.194 8.88361C114.118 9.10006 113.998 9.29884 113.842 9.46757C113.685 9.63631 113.495 9.77138 113.283 9.86434C113.071 9.95731 112.843 10.0062 112.611 10.008C112.378 10.0068 112.147 9.95854 111.933 9.86619C111.72 9.77384 111.527 9.63934 111.368 9.47092C111.209 9.3025 111.086 9.10375 111.008 8.88683C110.929 8.66992 110.896 8.43943 110.911 8.20953Z" fill="#2F2E2A"/>
<path d="M125.254 12.974C125.544 12.9535 125.835 12.9936 126.107 13.0918C126.38 13.19 126.629 13.344 126.838 13.5438C127.047 13.7435 127.21 13.9845 127.318 14.251C127.426 14.5175 127.475 14.8034 127.463 15.0901C127.489 15.274 127.474 15.4614 127.419 15.6388C127.363 15.8163 127.269 15.9797 127.143 16.1174C127.017 16.2551 126.862 16.3639 126.688 16.436C126.515 16.5081 126.328 16.5419 126.14 16.5348C124.677 16.5348 125.157 14.8563 123.894 14.8563C122.632 14.8563 121.466 17.2063 121.466 20.2516V28.0448C121.466 28.986 121.666 29.3217 122.619 29.4236L123.536 29.5255C123.779 29.5555 123.912 29.6933 123.912 29.8912C123.912 30.089 123.742 30.2928 123.402 30.2928H117.66C117.32 30.2928 117.15 30.1609 117.15 29.9271C117.15 29.6933 117.284 29.5914 117.587 29.5255L118 29.4595C118.947 29.2857 119.153 28.986 119.153 28.0448V16.7686C119.153 15.9594 118.947 15.7615 118.304 15.6596L117.587 15.5577C117.248 15.5217 117.15 15.3898 117.15 15.192C117.15 14.9942 117.32 14.8863 117.691 14.8203C118.764 14.6832 119.753 14.1706 120.477 13.3756C120.683 13.1718 120.817 13.0759 120.987 13.0759C121.157 13.0759 121.296 13.2077 121.296 13.4775V15.2759C121.296 15.6116 121.636 15.7136 121.873 15.3119C122.808 13.7772 123.918 12.974 125.254 12.974Z" fill="#2F2E2A"/>
<path d="M128.822 22.4761C128.822 16.871 131.712 12.9744 135.693 12.9744C136.336 12.9644 136.974 13.0911 137.563 13.3461C137.903 13.508 138.103 13.442 138.103 13.1063V8.81408C138.103 8.00479 137.903 7.77101 137.253 7.70506L136.373 7.60315C136.271 7.59557 136.175 7.54993 136.105 7.47541C136.035 7.40089 135.997 7.30302 135.997 7.20149C135.995 7.09955 136.033 7.00088 136.104 6.92605C136.174 6.85122 136.27 6.80601 136.373 6.79985C137.381 6.64928 138.35 6.30728 139.226 5.79274C139.46 5.60737 139.742 5.491 140.04 5.45703C140.282 5.45703 140.416 5.62487 140.416 5.99055V27.0861C140.416 28.0572 140.689 28.4949 141.132 28.4949C141.709 28.4949 142.346 27.7875 142.346 25.9111C142.346 25.5395 142.546 25.3716 142.783 25.3716C143.02 25.3716 143.19 25.5394 143.19 25.9411C143.19 29.1962 141.836 30.575 140.404 30.575C139.081 30.575 138.437 29.5679 138.231 28.357C138.164 28.0213 137.854 27.9913 137.624 28.327C136.367 30.0715 135.481 30.575 133.982 30.575C130.935 30.599 128.822 27.3439 128.822 22.4761ZM138.103 24.6223V17.0689C138.103 15.0546 137.084 13.8137 135.59 13.8137C133.041 13.8137 131.341 16.9669 131.341 22.0025C131.341 26.6005 132.598 29.0524 134.704 29.0524C136.44 29.0524 138.103 27.0861 138.103 24.6223Z" fill="#2F2E2A"/>
<path d="M144.186 29.9276C144.184 29.8257 144.222 29.727 144.292 29.6522C144.362 29.5773 144.459 29.5321 144.562 29.526L145.035 29.46C145.988 29.3221 146.195 28.9864 146.195 28.0453V8.81408C146.195 8.00479 145.988 7.80098 145.345 7.70506L144.629 7.60315C144.527 7.59414 144.433 7.54788 144.364 7.47351C144.296 7.39914 144.258 7.30206 144.258 7.20149C144.257 7.10052 144.294 7.00268 144.363 6.928C144.432 6.85333 144.527 6.80748 144.629 6.79985C145.578 6.62271 146.488 6.2818 147.318 5.79274C147.551 5.60651 147.833 5.49003 148.131 5.45703C148.368 5.45703 148.507 5.62487 148.507 5.99055V14.8868C148.507 15.2884 148.811 15.3903 149.218 15.0247C150.917 13.478 152.107 12.9744 153.57 12.9744C155.676 12.9744 157.005 14.4192 157.005 17.1348V28.0453C157.005 28.9864 157.206 29.2862 158.159 29.424L158.905 29.526C158.957 29.5267 159.008 29.5378 159.056 29.5586C159.103 29.5794 159.145 29.6095 159.181 29.6471C159.216 29.6847 159.243 29.7289 159.26 29.7771C159.278 29.8253 159.285 29.8765 159.282 29.9276C159.283 29.9791 159.273 30.0302 159.252 30.0776C159.232 30.1249 159.201 30.1674 159.163 30.202C159.124 30.2367 159.079 30.2628 159.029 30.2785C158.979 30.2943 158.927 30.2993 158.875 30.2933H153.163C152.823 30.2933 152.684 30.1314 152.684 29.9276C152.682 29.8257 152.72 29.727 152.79 29.6522C152.86 29.5773 152.957 29.5321 153.06 29.526L153.533 29.46C154.486 29.3221 154.693 28.9864 154.693 28.0453V17.4945C154.693 15.3124 153.843 14.4971 152.344 14.4971C150.171 14.4971 148.507 16.5773 148.507 19.0291V28.0213C148.507 28.9625 148.708 29.2982 149.661 29.4001L150.577 29.502C150.629 29.5027 150.68 29.5138 150.728 29.5346C150.775 29.5554 150.817 29.5855 150.853 29.6231C150.888 29.6607 150.915 29.7049 150.932 29.7531C150.95 29.8014 150.957 29.8526 150.954 29.9036C150.955 29.9551 150.945 30.0063 150.924 30.0536C150.904 30.1009 150.873 30.1434 150.835 30.1781C150.796 30.2127 150.751 30.2388 150.701 30.2546C150.651 30.2703 150.599 30.2753 150.547 30.2693H144.598C144.498 30.2776 144.398 30.2464 144.321 30.1824C144.243 30.1184 144.195 30.0268 144.186 29.9276Z" fill="#2F2E2A"/>
<path d="M160.775 21.7709C160.775 16.8372 163.464 12.9766 166.894 12.9766C170.323 12.9766 173.012 16.8372 173.012 21.7709C173.012 26.7046 170.36 30.6011 166.894 30.6011C163.428 30.6011 160.775 26.7765 160.775 21.7709ZM170.433 21.7709C170.433 16.5015 169.273 13.8158 166.894 13.8158C164.514 13.8158 163.373 16.5015 163.373 21.7709C163.373 27.0403 164.496 29.7619 166.906 29.7619C169.316 29.7619 170.433 27.0882 170.433 21.7709Z" fill="#2F2E2A"/>
<path d="M176.582 26.9065V15.2227C176.582 14.4194 176.376 14.1856 175.732 14.1137L175.156 14.0478C174.779 14.0178 174.549 13.8499 174.549 13.6101C174.549 13.3703 174.749 13.1725 175.192 13.1725H178.355C178.423 13.169 178.492 13.1798 178.555 13.2043C178.619 13.2287 178.677 13.2662 178.725 13.3143C178.774 13.3625 178.811 13.4201 178.835 13.4835C178.859 13.5469 178.869 13.6146 178.865 13.6821V26.1991C178.865 28.2853 179.678 29.0526 181.104 29.0526C183.18 29.0526 184.777 27.0744 184.777 24.7244V15.2227C184.777 14.4194 184.576 14.1856 183.927 14.1137L183.32 14.0478C182.944 14.0178 182.743 13.8499 182.743 13.6101C182.743 13.3703 182.944 13.1725 183.387 13.1725H186.549C186.618 13.169 186.686 13.1798 186.75 13.2043C186.814 13.2287 186.872 13.2662 186.92 13.3143C186.968 13.3625 187.005 13.4201 187.029 13.4835C187.053 13.5469 187.063 13.6146 187.059 13.6821V26.7027C187.059 27.512 187.265 27.7098 187.909 27.8117L188.625 27.9136C188.965 27.9496 189.062 28.0815 189.062 28.2493C189.062 28.4172 188.892 28.585 188.522 28.651C187.98 28.7097 187.455 28.8734 186.977 29.1326C186.499 29.3918 186.077 29.7415 185.736 30.1617C185.529 30.3655 185.396 30.4614 185.226 30.4614C185.056 30.4614 184.916 30.3295 184.916 30.0597V28.5191C184.916 28.1834 184.613 28.0815 184.34 28.3512C182.677 29.9938 181.554 30.5993 179.957 30.5993C178.318 30.5993 176.582 29.5922 176.582 26.9065Z" fill="#2F2E2A"/>
<path d="M191.339 29.9566C191.228 29.9036 191.138 29.8164 191.082 29.7082C191.026 29.6 191.007 29.4767 191.029 29.3571L190.926 25.5984C190.926 25.2627 191.096 25.0289 191.369 25.0289C191.642 25.0289 191.776 25.1968 191.879 25.5684C192.625 28.7517 193.7 29.6928 195.314 29.6928C196.607 29.6928 197.591 28.6198 197.591 26.8393C197.591 25.0589 196.674 23.842 194.325 22.1754C191.982 20.5988 190.926 19.0881 190.926 17.2058C190.926 14.652 192.899 12.9435 195.891 12.9435C196.763 12.9173 197.624 13.1378 198.374 13.5789C198.469 13.6332 198.548 13.7121 198.601 13.8072C198.655 13.9022 198.681 14.0098 198.677 14.1185L198.744 17.8112C198.744 18.1469 198.574 18.3148 198.337 18.3148C198.1 18.3148 197.931 18.081 197.827 17.7753C196.911 14.8558 196.097 13.8847 194.792 13.8847C194.515 13.8826 194.24 13.9367 193.985 14.0436C193.73 14.1506 193.5 14.3081 193.308 14.5064C193.117 14.7048 192.969 14.9397 192.874 15.1967C192.778 15.4538 192.737 15.7274 192.753 16.0008C192.753 17.5774 193.536 18.4827 196.049 20.1972C198.289 21.8037 199.478 23.6501 199.478 25.8322C199.478 28.7217 197.445 30.5681 194.416 30.5681C193.358 30.5776 192.31 30.3694 191.339 29.9566Z" fill="#2F2E2A"/>
<path d="M201.566 21.9374C201.566 16.6681 204.152 12.9453 207.515 12.9453C210.168 12.9453 212.001 14.9955 212.001 19.8633C212.001 20.5647 211.734 20.9663 211.151 20.9663H204.692C204.249 20.9663 204.013 21.2001 204.013 21.7396C204.013 26.4755 205.579 28.8554 207.752 28.8554C209.488 28.8554 210.507 27.7823 211.187 24.8989C211.201 24.7935 211.254 24.6969 211.336 24.6281C211.418 24.5593 211.523 24.5233 211.63 24.5272C211.897 24.5272 212.001 24.7969 211.934 25.1986C211.187 29.1911 209.554 30.5939 207.309 30.5939C204.043 30.5999 201.566 27.1409 201.566 21.9374ZM208.025 20.139C209.148 20.139 209.658 19.6354 209.658 18.4605C209.658 15.541 208.911 13.7966 207.485 13.7966C205.712 13.7966 204.419 15.9127 204.079 19.6055C204.066 19.6763 204.07 19.7492 204.091 19.8181C204.112 19.8871 204.149 19.9502 204.2 20.0022C204.25 20.0543 204.312 20.0938 204.381 20.1176C204.45 20.1414 204.523 20.1487 204.595 20.139H208.025Z" fill="#2F2E2A"/>
<path d="M33.6826 8.92799L18.5562 0.775122C18.2153 0.592009 17.8335 0.496094 17.4454 0.496094C17.0574 0.496094 16.6755 0.592009 16.3346 0.775122L1.20823 8.92799C0.841388 9.12359 0.5349 9.41348 0.321197 9.767C0.107494 10.1205 -0.00547694 10.5245 -0.00576268 10.9362V30.2034C-0.0102063 30.6784 0.138617 31.1424 0.419136 31.5282C0.451348 31.579 0.496097 31.6209 0.549185 31.6499C0.602272 31.6789 0.661956 31.6942 0.722635 31.6942C0.783314 31.6942 0.842998 31.6789 0.896085 31.6499C0.949172 31.6209 0.993922 31.579 1.02613 31.5282L12.122 16.7212C13.0786 15.4464 14.397 14.481 15.9099 13.9474C17.4229 13.4137 19.0622 13.3359 20.62 13.7238C21.981 14.1166 23.1801 14.927 24.0435 16.0378C24.9843 17.1408 26.6596 17.9621 28.4503 18.7294C28.4928 18.7294 28.4988 18.7894 28.4503 18.8193C23.1573 21.6309 19.9645 26.2828 18.3013 32.2776C18.295 32.3034 18.2946 32.3304 18.3001 32.3564C18.3056 32.3825 18.3169 32.407 18.3331 32.4282C18.3494 32.4494 18.3702 32.4668 18.3941 32.4791C18.418 32.4914 18.4443 32.4983 18.4712 32.4994H32.5657C33.1829 32.4994 33.7748 32.2577 34.2118 31.8272C34.6487 31.3968 34.895 30.8129 34.8966 30.2034V10.9362C34.8957 10.5246 34.7824 10.1209 34.5688 9.76751C34.3552 9.41411 34.049 9.12409 33.6826 8.92799Z" fill="#00ACEE"/>
<path d="M20.3582 18.6035C20.3582 18.0757 20.1459 17.5695 19.7679 17.1962C19.39 16.823 18.8774 16.6133 18.3429 16.6133C18.1109 16.6131 17.8807 16.6537 17.6631 16.7332C17.2692 16.8722 16.9289 17.1289 16.6894 17.4675C16.4498 17.8062 16.3229 18.2101 16.3262 18.6232C16.3296 19.0363 16.463 19.4381 16.708 19.773C16.953 20.1078 17.2974 20.3591 17.6935 20.4919C17.9111 20.5714 18.1413 20.612 18.3733 20.6118C18.6385 20.6118 18.901 20.5601 19.1459 20.4597C19.3908 20.3593 19.6132 20.2122 19.8004 20.0267C19.9876 19.8413 20.136 19.6212 20.2369 19.379C20.3378 19.1369 20.3893 18.8774 20.3885 18.6155" fill="#00ACEE"/>
</g>
<defs>
<clipPath id="clip0_96_2078">
<rect width="212" height="32" fill="white" transform="translate(0 0.5)"/>
</clipPath>
</defs>
</svg>
